<?xml version="1.0" encoding="UTF-8"?>
<svg id="Layer_2" data-name="Layer 2" xmlns="http://www.w3.org/2000/svg" viewBox="0 0 459.19 79.83">
  <defs>
    <style>
      .cls-1 {
        fill: #2bb673;
      }

      .cls-1, .cls-2 {
        stroke-width: 0px;
      }

      .cls-2 {
        fill: #278600;
      }
    </style>
  </defs>
  <g id="Layer_1-2" data-name="Layer 1">
    <g>
      <g>
        <path class="cls-2" d="M0,56.03c0-3.31.62-6.4,1.85-9.26,1.23-2.86,2.92-5.36,5.08-7.51,2.15-2.15,4.67-3.84,7.56-5.08,2.89-1.23,5.96-1.85,9.2-1.85s6.4.62,9.26,1.85c2.86,1.24,5.38,2.93,7.56,5.08,2.18,2.15,3.9,4.65,5.13,7.51,1.23,2.86,1.85,5.94,1.85,9.26s-.62,6.31-1.85,9.2c-1.23,2.89-2.95,5.43-5.13,7.62-2.19,2.19-4.71,3.9-7.56,5.13-2.86,1.23-5.94,1.85-9.26,1.85s-6.31-.62-9.2-1.85c-2.89-1.23-5.41-2.94-7.56-5.13-2.15-2.19-3.85-4.72-5.08-7.62-1.23-2.89-1.85-5.96-1.85-9.2ZM9.31,56.03c0,1.98.37,3.85,1.11,5.61s1.76,3.3,3.07,4.6c1.3,1.31,2.84,2.33,4.6,3.07,1.76.74,3.63,1.11,5.61,1.11s3.84-.37,5.61-1.11c1.76-.74,3.3-1.76,4.6-3.07s2.33-2.84,3.07-4.6c.74-1.76,1.11-3.63,1.11-5.61s-.37-3.82-1.11-5.55c-.74-1.73-1.76-3.24-3.07-4.55-1.31-1.3-2.84-2.33-4.6-3.07-1.76-.74-3.63-1.11-5.61-1.11s-3.85.37-5.61,1.11c-1.76.74-3.3,1.76-4.6,3.07-1.31,1.31-2.33,2.82-3.07,4.55-.74,1.73-1.11,3.58-1.11,5.55Z"/>
        <path class="cls-2" d="M68.97,23.61c-1.76.74-3.3,1.76-4.6,3.07-1.31,1.31-2.33,2.82-3.07,4.55-.74,1.73-1.11,3.58-1.11,5.55v4.87h19.04v9.42h-19.04v28.56h-9.41v-42.84c0-3.31.62-6.4,1.85-9.26,1.23-2.86,2.94-5.36,5.13-7.51,2.18-2.15,4.72-3.84,7.62-5.08,2.89-1.23,5.96-1.85,9.2-1.85h4.66v9.41h-4.66c-1.97,0-3.84.37-5.61,1.11Z"/>
        <path class="cls-2" d="M101.02,23.61c-1.76.74-3.3,1.76-4.6,3.07-1.31,1.31-2.33,2.82-3.07,4.55-.74,1.73-1.11,3.58-1.11,5.55v4.87h19.04v9.42h-19.04v28.56h-9.41v-42.84c0-3.31.62-6.4,1.85-9.26,1.23-2.86,2.94-5.36,5.13-7.51,2.18-2.15,4.72-3.84,7.62-5.08,2.89-1.23,5.96-1.85,9.2-1.85h4.66v9.41h-4.66c-1.97,0-3.84.37-5.61,1.11Z"/>
        <path class="cls-2" d="M152.01,62.9l6.66,6.66-3.28,3.28c-2.26,2.26-4.83,3.99-7.72,5.18-2.89,1.2-5.92,1.8-9.1,1.8s-6.21-.6-9.1-1.8c-2.89-1.2-5.47-2.93-7.72-5.18-2.33-2.33-4.06-4.95-5.18-7.88-1.13-2.93-1.69-5.91-1.69-8.94s.56-5.99,1.69-8.89c1.13-2.89,2.86-5.5,5.18-7.83s4.95-4.07,7.88-5.24c2.93-1.16,5.91-1.75,8.94-1.75s6.01.58,8.94,1.75c2.93,1.16,5.55,2.91,7.88,5.24l3.28,3.28-26.34,26.34c2.68,1.34,5.52,1.78,8.52,1.32,3-.46,5.62-1.82,7.88-4.07l3.28-3.28ZM128.42,45.87c-2.82,2.82-4.23,6.21-4.23,10.15,0,2.19.49,4.27,1.48,6.24.85-.85,2.13-2.13,3.86-3.86,1.73-1.73,3.56-3.56,5.5-5.5,1.94-1.94,3.81-3.79,5.61-5.55,1.8-1.76,3.19-3.14,4.18-4.13-2.68-1.34-5.52-1.8-8.52-1.38-3,.42-5.62,1.76-7.88,4.02Z"/>
        <path class="cls-2" d="M190.4,32.12v9.41h-4.76c-1.97,0-3.83.37-5.55,1.11-1.73.74-3.24,1.76-4.55,3.07-1.31,1.31-2.33,2.82-3.07,4.55-.74,1.73-1.11,3.58-1.11,5.55v23.8h-9.52v-23.8c0-3.31.62-6.4,1.85-9.26,1.23-2.86,2.94-5.36,5.13-7.51,2.19-2.15,4.72-3.84,7.62-5.08,2.89-1.23,5.96-1.85,9.2-1.85h4.76Z"/>
        <path class="cls-1" d="M254.83,32.12c3.31,0,6.4.62,9.26,1.85,2.86,1.23,5.38,2.93,7.56,5.08,2.18,2.15,3.9,4.65,5.13,7.51,1.23,2.86,1.85,5.94,1.85,9.26v23.8h-9.41v-23.8c0-1.97-.37-3.82-1.11-5.55-.74-1.73-1.76-3.24-3.07-4.55-1.31-1.3-2.84-2.33-4.6-3.07-1.76-.74-3.63-1.11-5.61-1.11s-3.83.37-5.55,1.11c-1.73.74-3.24,1.76-4.55,3.07-1.31,1.31-2.33,2.82-3.07,4.55-.74,1.73-1.11,3.58-1.11,5.55v23.8h-9.41v-23.8c0-1.97-.37-3.82-1.11-5.55-.74-1.73-1.76-3.24-3.07-4.55-1.31-1.3-2.84-2.33-4.6-3.07-1.76-.74-3.63-1.11-5.61-1.11s-3.83.37-5.55,1.11c-1.73.74-3.24,1.76-4.55,3.07-1.31,1.31-2.33,2.82-3.07,4.55-.74,1.73-1.11,3.58-1.11,5.55v23.8h-9.41v-23.8c0-3.31.62-6.4,1.85-9.26,1.23-2.86,2.93-5.36,5.08-7.51,2.15-2.15,4.67-3.84,7.56-5.08,2.89-1.23,5.96-1.85,9.2-1.85,3.95,0,7.56.86,10.84,2.59,3.28,1.73,6.01,4.07,8.2,7.03,2.18-2.96,4.94-5.31,8.25-7.03,3.31-1.73,6.91-2.59,10.79-2.59Z"/>
        <path class="cls-1" d="M305.71,32.12c3.31,0,6.4.62,9.26,1.85,2.86,1.23,5.36,2.93,7.51,5.08,2.15,2.15,3.84,4.65,5.08,7.51,1.23,2.86,1.85,5.94,1.85,9.26v23.8h-23.69c-3.24,0-6.31-.62-9.2-1.85-2.89-1.23-5.43-2.94-7.62-5.13-2.19-2.18-3.9-4.72-5.13-7.62-1.23-2.89-1.85-5.96-1.85-9.2s.62-6.4,1.85-9.26c1.23-2.86,2.94-5.36,5.13-7.51,2.19-2.15,4.72-3.84,7.62-5.08,2.89-1.23,5.96-1.85,9.2-1.85ZM319.99,70.2v-14.39c0-1.97-.37-3.82-1.11-5.55-.74-1.73-1.76-3.24-3.07-4.55-1.31-1.3-2.82-2.33-4.55-3.07-1.73-.74-3.58-1.11-5.55-1.11s-3.85.37-5.61,1.11-3.3,1.76-4.6,3.07c-1.31,1.31-2.33,2.82-3.07,4.55-.74,1.73-1.11,3.58-1.11,5.55s.37,3.85,1.11,5.61c.74,1.76,1.76,3.3,3.07,4.6,1.3,1.31,2.84,2.33,4.6,3.07s3.63,1.11,5.61,1.11h14.28Z"/>
        <path class="cls-1" d="M360.61,70.2v9.41h-4.65c-3.24,0-6.31-.62-9.2-1.85-2.89-1.23-5.43-2.94-7.62-5.13-2.19-2.18-3.9-4.72-5.13-7.62-1.23-2.89-1.85-5.96-1.85-9.2V13.08h9.41v28.56h19.04v9.42h-19.04v4.76c0,1.97.37,3.85,1.11,5.61.74,1.76,1.76,3.3,3.07,4.6,1.3,1.31,2.84,2.33,4.6,3.07,1.76.74,3.63,1.11,5.61,1.11h4.65Z"/>
        <path class="cls-1" d="M370.97,39.1c2.33-2.33,4.95-4.07,7.88-5.24,2.92-1.16,5.9-1.75,8.94-1.75s6.01.58,8.94,1.75c2.92,1.16,5.55,2.91,7.88,5.24l3.28,3.28-6.56,6.66-3.38-3.28c-1.41-1.41-3-2.47-4.76-3.17-1.76-.7-3.56-1.06-5.39-1.06s-3.63.35-5.4,1.06c-1.76.71-3.35,1.76-4.76,3.17-1.41,1.34-2.47,2.89-3.17,4.65-.71,1.76-1.06,3.56-1.06,5.4s.35,3.63,1.06,5.4c.7,1.76,1.76,3.35,3.17,4.76,2.82,2.82,6.2,4.23,10.15,4.23,1.9,0,3.74-.35,5.5-1.06,1.76-.7,3.31-1.76,4.65-3.17l3.38-3.28,6.56,6.66-3.28,3.28c-2.33,2.33-4.96,4.07-7.88,5.24-2.93,1.16-5.91,1.75-8.94,1.75s-6.01-.58-8.94-1.75c-2.93-1.16-5.55-2.91-7.88-5.24-2.33-2.33-4.06-4.94-5.18-7.83-1.13-2.89-1.69-5.87-1.69-8.94s.56-6.05,1.69-8.94c1.13-2.89,2.86-5.5,5.18-7.83Z"/>
        <path class="cls-1" d="M435.39,32.12c3.31,0,6.4.62,9.26,1.85,2.86,1.23,5.38,2.93,7.56,5.08,2.18,2.15,3.9,4.65,5.13,7.51,1.23,2.86,1.85,5.94,1.85,9.26v23.8h-9.41v-23.8c0-1.97-.37-3.82-1.11-5.55-.74-1.73-1.76-3.24-3.07-4.55-1.31-1.3-2.84-2.33-4.6-3.07-1.76-.74-3.63-1.11-5.61-1.11s-3.83.37-5.55,1.11c-1.73.74-3.24,1.76-4.55,3.07-1.31,1.31-2.33,2.82-3.07,4.55-.74,1.73-1.11,3.58-1.11,5.55v23.8h-9.41V13.08h9.41v23.91c1.97-1.55,4.18-2.75,6.61-3.6s4.99-1.27,7.67-1.27Z"/>
      </g>
      <path class="cls-2" d="M294.33,7.97c.14-2.78.25-5.06.4-7.97l24.01,13.69c-7.96,4.8-15.74,9.49-23.98,14.46-.16-3.09-.29-5.57-.44-8.44-47.54-1.48-122.32-2.96-169.63-4.44l169.64-7.31Z"/>
    </g>
  </g>
</svg>