<?xml version="1.0" standalone="no"?>
<!DOCTYPE svg PUBLIC "-//W3C//DTD SVG 20010904//EN"
 "http://www.w3.org/TR/2001/REC-SVG-20010904/DTD/svg10.dtd">
<svg version="1.0" xmlns="http://www.w3.org/2000/svg"
 width="254.000000pt" height="254.000000pt" viewBox="0 0 254.000000 254.000000"
 preserveAspectRatio="xMidYMid meet">
<metadata>
Created by potrace 1.14, written by Peter Selinger 2001-2017
</metadata>
<g transform="translate(0.000000,254.000000) scale(0.100000,-0.100000)"
fill="#000000" stroke="none">
<path d="M1248 2285 c-2 -2 -34 -6 -71 -9 -37 -3 -87 -10 -110 -15 -23 -6 -53
-12 -67 -14 -14 -3 -68 -20 -120 -38 -406 -140 -726 -476 -844 -883 -36 -122
-32 -138 8 -36 39 100 93 209 130 263 14 21 26 42 26 47 0 6 4 10 8 10 4 0 15
13 25 29 29 50 149 172 228 232 157 119 348 201 569 244 206 40 467 17 660
-57 52 -20 169 -77 180 -88 3 -3 16 -11 30 -19 63 -36 183 -135 277 -230 l103
-105 73 2 c92 2 113 7 109 23 -14 57 -216 290 -311 359 -19 14 -40 31 -47 38
-7 6 -15 12 -18 12 -3 0 -31 16 -63 37 -106 68 -316 152 -421 169 -15 2 -36 6
-47 9 -52 11 -299 27 -307 20z"/>
<path d="M1537 1843 c-1 0 -54 -4 -117 -8 -63 -4 -131 -8 -150 -10 -19 -2 -75
-6 -125 -10 -49 -3 -101 -8 -115 -10 -14 -2 -54 -7 -90 -10 -36 -4 -68 -9 -72
-11 -4 -2 8 -37 27 -78 35 -77 91 -242 100 -298 3 -18 8 -40 10 -48 3 -8 7
-35 11 -60 3 -25 8 -56 10 -70 9 -65 18 -194 18 -283 1 -82 3 -95 14 -80 7 10
15 29 18 43 3 14 10 36 15 50 20 54 32 152 33 270 0 91 -11 226 -19 240 -2 4
-7 20 -10 36 -12 68 -15 82 -29 127 -14 46 -14 47 7 48 12 0 36 2 52 4 17 2
64 6 105 9 41 3 116 9 165 12 50 4 121 8 159 8 l69 1 15 -40 c33 -90 48 -199
48 -337 -1 -76 1 -138 4 -138 13 0 80 52 88 68 5 9 7 67 6 127 -3 174 -23 322
-55 423 l-11 33 -90 -3 c-49 -2 -90 -4 -91 -5z"/>
<path d="M1313 1540 c-46 -27 -67 -66 -69 -123 -2 -62 25 -111 77 -137 45 -23
49 -24 49 -7 0 6 -18 20 -40 29 -40 16 -52 41 -26 51 7 3 25 -2 39 -12 34 -22
94 -16 102 10 9 26 0 36 -35 43 -17 3 -44 9 -60 12 -67 13 -76 92 -14 122 34
16 45 32 22 32 -7 0 -27 -9 -45 -20z"/>
<path d="M1416 1545 c4 -8 14 -15 23 -15 17 0 41 -18 41 -31 0 -13 -32 -20
-44 -9 -19 15 -72 16 -90 1 -20 -16 -6 -46 22 -48 40 -3 100 -24 112 -38 30
-36 4 -96 -49 -117 -16 -6 -21 -12 -14 -19 24 -24 121 56 125 104 5 84 -17
138 -70 170 -37 21 -63 22 -56 2z"/>
<path d="M747 1524 c-1 -1 -31 -5 -67 -8 -62 -6 -123 -15 -126 -19 -1 -1 16
-38 36 -82 89 -188 141 -428 144 -652 1 -35 3 -63 6 -63 4 0 4 -17 3 -37 -3
-29 -1 -34 6 -22 9 14 16 42 26 109 2 14 7 36 10 50 23 90 6 371 -30 516 -17
68 -18 85 -7 82 6 -2 59 6 127 18 44 8 46 12 26 62 l-19 47 -66 1 c-37 0 -67
-1 -69 -2z"/>
<path d="M2142 1492 c-5 -1 0 -23 13 -50 21 -44 22 -48 6 -63 -9 -8 -23 -18
-31 -22 -13 -6 -151 -94 -200 -127 -8 -6 -208 -134 -445 -286 -236 -151 -470
-301 -520 -333 -49 -32 -184 -118 -300 -191 -223 -142 -264 -171 -175 -124 30
16 57 31 60 34 3 3 39 22 80 43 41 20 127 65 190 98 215 113 325 172 375 199
28 15 111 59 185 98 74 39 178 94 230 122 52 28 115 60 140 72 25 12 47 24 50
27 3 3 39 23 80 45 86 44 237 123 327 172 l61 33 26 -44 c15 -24 30 -47 35
-50 9 -5 54 70 144 235 17 30 36 64 44 75 7 11 13 24 13 30 0 10 -360 17 -388
7z"/>
</g>
</svg>
