<?xml version="1.0" encoding="UTF-8"?>
<svg width="138px" height="26px" viewBox="0 0 138 26" version="1.1" xmlns="http://www.w3.org/2000/svg" xmlns:xlink="http://www.w3.org/1999/xlink">
    <title>Trustpilot_ratings_5star-RGB</title>
    <g id="Version-1-DT---DCR" stroke="none" stroke-width="1" fill="none" fill-rule="evenodd">
        <g id="Desktop-Page-1" transform="translate(-278.000000, -819.000000)" fill-rule="nonzero">
            <g id="TP-Widget" transform="translate(-40.000000, 679.000000)">
                <g id="Testimonials" transform="translate(297.000000, 43.000000)">
                    <g id="TP-Review-1" transform="translate(0.000000, 73.000000)">
                        <g id="Trustpilot_ratings_5star-RGB" transform="translate(21.000000, 24.000000)">
                            <rect id="Rectangle-path" fill="#00B67A" x="0" y="0" width="26" height="26"></rect>
                            <rect id="Rectangle-path" fill="#00B67A" x="28" y="0" width="26" height="26"></rect>
                            <rect id="Rectangle-path" fill="#00B67A" x="56" y="0" width="26" height="26"></rect>
                            <rect id="Rectangle-path" fill="#00B67A" x="84" y="0" width="26" height="26"></rect>
                            <rect id="Rectangle-path" fill="#00B67A" x="112" y="0" width="26" height="26"></rect>
                            <path d="M13,17.7264151 L16.9107143,16.6792453 L18.5446429,22 L13,17.7264151 Z M22,10.8490566 L15.1160714,10.8490566 L13,4 L10.8839286,10.8490566 L4,10.8490566 L9.57142857,15.0943396 L7.45535714,21.9433962 L13.0267857,17.6981132 L16.4553571,15.0943396 L22,10.8490566 L22,10.8490566 L22,10.8490566 L22,10.8490566 Z" id="Shape" fill="#FFFFFF"></path>
                            <path d="M41,17.7264151 L44.9107143,16.6792453 L46.5446429,22 L41,17.7264151 Z M50,10.8490566 L43.1160714,10.8490566 L41,4 L38.8839286,10.8490566 L32,10.8490566 L37.5714286,15.0943396 L35.4553571,21.9433962 L41.0267857,17.6981132 L44.4553571,15.0943396 L50,10.8490566 L50,10.8490566 L50,10.8490566 L50,10.8490566 Z" id="Shape" fill="#FFFFFF"></path>
                            <path d="M69,17.7264151 L72.9107143,16.6792453 L74.5446429,22 L69,17.7264151 Z M78,10.8490566 L71.1160714,10.8490566 L69,4 L66.8839286,10.8490566 L60,10.8490566 L65.5714286,15.0943396 L63.4553571,21.9433962 L69.0267857,17.6981132 L72.4553571,15.0943396 L78,10.8490566 L78,10.8490566 L78,10.8490566 L78,10.8490566 Z" id="Shape" fill="#FFFFFF"></path>
                            <path d="M97,17.7264151 L100.910714,16.6792453 L102.544643,22 L97,17.7264151 Z M106,10.8490566 L99.1160714,10.8490566 L97,4 L94.8839286,10.8490566 L88,10.8490566 L93.5714286,15.0943396 L91.4553571,21.9433962 L97.0267857,17.6981132 L100.455357,15.0943396 L106,10.8490566 L106,10.8490566 L106,10.8490566 L106,10.8490566 Z" id="Shape" fill="#FFFFFF"></path>
                            <path d="M125,17.7264151 L128.910714,16.6792453 L130.544643,22 L125,17.7264151 Z M134,10.8490566 L127.116071,10.8490566 L125,4 L122.883929,10.8490566 L116,10.8490566 L121.571429,15.0943396 L119.455357,21.9433962 L125.026786,17.6981132 L128.455357,15.0943396 L134,10.8490566 L134,10.8490566 L134,10.8490566 L134,10.8490566 Z" id="Shape" fill="#FFFFFF"></path>
                        </g>
                    </g>
                </g>
            </g>
        </g>
    </g>
</svg>