<?xml version="1.0" encoding="UTF-8"?>
<svg width="397px" height="29px" viewBox="0 0 397 29" version="1.1" xmlns="http://www.w3.org/2000/svg" xmlns:xlink="http://www.w3.org/1999/xlink">
    <title>TP Brandmark</title>
    <g id="Version-1-DT---DCR" stroke="none" stroke-width="1" fill="none" fill-rule="evenodd">
        <g id="Desktop-Page-1" transform="translate(-258.000000, -722.000000)" fill-rule="nonzero">
            <g id="TP-Widget" transform="translate(-40.000000, 679.000000)">
                <g id="Testimonials" transform="translate(297.000000, 43.000000)">
                    <g id="TP-Brandmark" transform="translate(1.158000, 0.000000)">
                        <path d="M14.092,24 L14.092,20.62 L4.186,20.62 L4.186,16.408 L12.636,16.408 L12.636,13.132 L4.186,13.132 L4.186,9.18 L13.754,9.18 L13.754,5.8 L0,5.8 L0,24 L14.092,24 Z M19.812,24 L22.984,19.71 L26.052,24 L30.654,24 L25.246,16.85 L30.446,10.012 L26.13,10.012 L23.088,14.094 L20.124,10.012 L15.574,10.012 L20.774,16.954 L15.392,24 L19.812,24 Z M39.39,24.208 C40.8633333,24.208 42.1503333,23.896 43.251,23.272 C44.3516667,22.648 45.1533333,21.7813333 45.656,20.672 L45.656,20.672 L42.51,18.956 C41.7993333,20.2386667 40.7506667,20.88 39.364,20.88 C38.3066667,20.88 37.4313333,20.5333333 36.738,19.84 C36.0446667,19.1466667 35.698,18.202 35.698,17.006 C35.698,15.81 36.0446667,14.8653333 36.738,14.172 C37.4313333,13.4786667 38.3066667,13.132 39.364,13.132 C40.7333333,13.132 41.782,13.7733333 42.51,15.056 L42.51,15.056 L45.656,13.366 C45.1533333,12.222 44.3516667,11.3423333 43.251,10.727 C42.1503333,10.1116667 40.8633333,9.804 39.39,9.804 C37.8993333,9.804 36.5603333,10.1116667 35.373,10.727 C34.1856667,11.3423333 33.2583333,12.196 32.591,13.288 C31.9236667,14.38 31.59,15.6193333 31.59,17.006 C31.59,18.3926667 31.9236667,19.632 32.591,20.724 C33.2583333,21.816 34.1856667,22.6696667 35.373,23.285 C36.5603333,23.9003333 37.8993333,24.208 39.39,24.208 Z M54.938,24.208 C57.4686667,24.208 59.3926667,23.454 60.71,21.946 L60.71,21.946 L58.552,19.606 C58.0666667,20.074 57.5423333,20.4163333 56.979,20.633 C56.4156667,20.8496667 55.77,20.958 55.042,20.958 C53.9846667,20.958 53.1006667,20.7066667 52.39,20.204 C51.6793333,19.7013333 51.2286667,19.0166667 51.038,18.15 L51.038,18.15 L61.62,18.15 C61.672,17.474 61.698,17.11 61.698,17.058 C61.698,15.602 61.3816667,14.3236667 60.749,13.223 C60.1163333,12.1223333 59.2453333,11.2773333 58.136,10.688 C57.0266667,10.0986667 55.7873333,9.804 54.418,9.804 C53.014,9.804 51.7443333,10.1116667 50.609,10.727 C49.4736667,11.3423333 48.581,12.2003333 47.931,13.301 C47.281,14.4016667 46.956,15.6366667 46.956,17.006 C46.956,18.3926667 47.2853333,19.632 47.944,20.724 C48.6026667,21.816 49.5386667,22.6696667 50.752,23.285 C51.9653333,23.9003333 53.3606667,24.208 54.938,24.208 Z M57.876,15.784 L50.986,15.784 C51.1246667,14.8826667 51.506,14.172 52.13,13.652 C52.754,13.132 53.5253333,12.872 54.444,12.872 C55.3453333,12.872 56.108,13.1363333 56.732,13.665 C57.356,14.1936667 57.7373333,14.9 57.876,15.784 L57.876,15.784 Z M68.458,24 L68.458,4.708 L64.402,4.708 L64.402,24 L68.458,24 Z M76.284,24 L76.284,4.708 L72.228,4.708 L72.228,24 L76.284,24 Z M86.996,24.208 C89.5266667,24.208 91.4506667,23.454 92.768,21.946 L92.768,21.946 L90.61,19.606 C90.1246667,20.074 89.6003333,20.4163333 89.037,20.633 C88.4736667,20.8496667 87.828,20.958 87.1,20.958 C86.0426667,20.958 85.1586667,20.7066667 84.448,20.204 C83.7373333,19.7013333 83.2866667,19.0166667 83.096,18.15 L83.096,18.15 L93.678,18.15 C93.73,17.474 93.756,17.11 93.756,17.058 C93.756,15.602 93.4396667,14.3236667 92.807,13.223 C92.1743333,12.1223333 91.3033333,11.2773333 90.194,10.688 C89.0846667,10.0986667 87.8453333,9.804 86.476,9.804 C85.072,9.804 83.8023333,10.1116667 82.667,10.727 C81.5316667,11.3423333 80.639,12.2003333 79.989,13.301 C79.339,14.4016667 79.014,15.6366667 79.014,17.006 C79.014,18.3926667 79.3433333,19.632 80.002,20.724 C80.6606667,21.816 81.5966667,22.6696667 82.81,23.285 C84.0233333,23.9003333 85.4186667,24.208 86.996,24.208 Z M89.934,15.784 L83.044,15.784 C83.1826667,14.8826667 83.564,14.172 84.188,13.652 C84.812,13.132 85.5833333,12.872 86.502,12.872 C87.4033333,12.872 88.166,13.1363333 88.79,13.665 C89.414,14.1936667 89.7953333,14.9 89.934,15.784 L89.934,15.784 Z M100.516,24 L100.516,17.084 C100.516,15.836 100.819333,14.8956667 101.426,14.263 C102.032667,13.6303333 102.847333,13.314 103.87,13.314 C104.788667,13.314 105.490667,13.587 105.976,14.133 C106.461333,14.679 106.704,15.5066667 106.704,16.616 L106.704,16.616 L106.704,24 L110.76,24 L110.76,15.992 C110.76,13.9466667 110.227,12.404 109.161,11.364 C108.095,10.324 106.695333,9.804 104.962,9.804 C104.008667,9.804 103.133333,9.96433333 102.336,10.285 C101.538667,10.6056667 100.871333,11.0606667 100.334,11.65 L100.334,11.65 L100.334,10.012 L96.46,10.012 L96.46,24 L100.516,24 Z M120.146,24.208 C120.787333,24.208 121.398333,24.1343333 121.979,23.987 C122.559667,23.8396667 123.049333,23.6186667 123.448,23.324 L123.448,23.324 L122.356,20.464 C121.905333,20.8106667 121.359333,20.984 120.718,20.984 C120.163333,20.984 119.734333,20.8236667 119.431,20.503 C119.127667,20.1823333 118.976,19.7273333 118.976,19.138 L118.976,19.138 L118.976,13.444 L122.46,13.444 L122.46,10.324 L118.976,10.324 L118.976,6.918 L114.92,6.918 L114.92,10.324 L112.762,10.324 L112.762,13.444 L114.92,13.444 L114.92,19.19 C114.92,20.8366667 115.375,22.0846667 116.285,22.934 C117.195,23.7833333 118.482,24.208 120.146,24.208 Z" id="Excellent" fill="#FFFFFF"></path>
                        <g id="Trustpilot_brandmark" transform="translate(296.842000, 4.000000)">
                            <g id="Type" transform="translate(27.052392, 9.053039)" fill="#FFFFFF">
                                <path d="M0.00873205742,0 L10.0244019,0 L10.0244019,1.89171271 L6.08624402,1.89171271 L6.08624402,12.5259669 L3.92069378,12.5259669 L3.92069378,1.89171271 L0,1.89171271 L0,0 L0.00873205742,0 Z M9.5965311,3.45635359 L11.4477273,3.45635359 L11.4477273,5.20662983 L11.4826555,5.20662983 C11.5437799,4.95911602 11.6572967,4.72044199 11.8232057,4.49060773 C11.9891148,4.26077348 12.1899522,4.03977901 12.4257177,3.85414365 C12.6614833,3.65966851 12.923445,3.50939227 13.2116029,3.38563536 C13.4997608,3.27071823 13.7966507,3.20883978 14.0935407,3.20883978 C14.3205742,3.20883978 14.4864833,3.21767956 14.5738038,3.22651934 C14.6611244,3.23535912 14.748445,3.25303867 14.8444976,3.26187845 L14.8444976,5.18895028 C14.7047847,5.16243094 14.5650718,5.14475138 14.4166268,5.12707182 C14.2681818,5.10939227 14.1284689,5.10055249 13.988756,5.10055249 C13.6569378,5.10055249 13.3425837,5.17127072 13.0456938,5.3038674 C12.7488038,5.43646409 12.4955742,5.63977901 12.2772727,5.8961326 C12.0589713,6.16132597 11.8843301,6.47955801 11.7533493,6.86850829 C11.6223684,7.25745856 11.561244,7.69944751 11.561244,8.20331492 L11.561244,12.5171271 L9.58779904,12.5171271 L9.58779904,3.45635359 L9.5965311,3.45635359 Z M23.9171053,12.5259669 L21.9785885,12.5259669 L21.9785885,11.2618785 L21.9436603,11.2618785 C21.6991627,11.721547 21.3411483,12.0839779 20.8608852,12.358011 C20.380622,12.6320442 19.8916268,12.7734807 19.3938995,12.7734807 C18.2150718,12.7734807 17.3593301,12.481768 16.8354067,11.8895028 C16.3114833,11.2972376 16.0495215,10.4044199 16.0495215,9.21104972 L16.0495215,3.45635359 L18.0229665,3.45635359 L18.0229665,9.01657459 C18.0229665,9.8121547 18.1714115,10.3779006 18.4770335,10.7049724 C18.7739234,11.0320442 19.2017943,11.2 19.7431818,11.2 C20.1623206,11.2 20.5028708,11.1381215 20.7822967,11.0055249 C21.0617225,10.8729282 21.288756,10.7049724 21.4546651,10.4839779 C21.6293062,10.2718232 21.751555,10.0066298 21.8301435,9.70607735 C21.9087321,9.40552486 21.9436603,9.07845304 21.9436603,8.72486188 L21.9436603,3.46519337 L23.9171053,3.46519337 L23.9171053,12.5259669 Z M27.2789474,9.61767956 C27.3400718,10.201105 27.5583732,10.6077348 27.9338517,10.8464088 C28.3180622,11.0762431 28.7721292,11.2 29.3047847,11.2 C29.4881579,11.2 29.6977273,11.1823204 29.9334928,11.1558011 C30.1692584,11.1292818 30.3962919,11.0674033 30.5971292,10.9878453 C30.8066986,10.9082873 30.9726077,10.7845304 31.1123206,10.6254144 C31.2433014,10.4662983 31.3044258,10.2629834 31.2956938,10.0066298 C31.2869617,9.75027624 31.1909091,9.53812155 31.0162679,9.37900552 C30.8416268,9.21104972 30.6233254,9.08729282 30.3526316,8.98121547 C30.0819378,8.8839779 29.7763158,8.79558011 29.4270335,8.72486188 C29.0777512,8.65414365 28.7284689,8.57458564 28.3704545,8.49502762 C28.0037081,8.41546961 27.6456938,8.30939227 27.3051435,8.19447514 C26.9645933,8.07955801 26.6589713,7.92044199 26.3882775,7.71712707 C26.1175837,7.52265193 25.8992823,7.26629834 25.7421053,6.95690608 C25.5761962,6.64751381 25.4976077,6.26740331 25.4976077,5.80773481 C25.4976077,5.31270718 25.6198565,4.90607735 25.855622,4.57016575 C26.0913876,4.23425414 26.3970096,3.96906077 26.7550239,3.76574586 C27.1217703,3.56243094 27.523445,3.42099448 27.9687799,3.33259669 C28.4141148,3.25303867 28.8419856,3.20883978 29.2436603,3.20883978 C29.7064593,3.20883978 30.1517943,3.26187845 30.570933,3.35911602 C30.9900718,3.45635359 31.3742823,3.61546961 31.7148325,3.84530387 C32.0553828,4.06629834 32.3348086,4.35801105 32.5618421,4.71160221 C32.7888756,5.06519337 32.9285885,5.49834254 32.9897129,6.00220994 L30.9289474,6.00220994 C30.8328947,5.52486188 30.6233254,5.19779006 30.2827751,5.03867403 C29.9422249,4.87071823 29.5492823,4.79116022 29.1126794,4.79116022 C28.9729665,4.79116022 28.8070574,4.8 28.6149522,4.82651934 C28.4228469,4.85303867 28.2482057,4.89723757 28.0735646,4.95911602 C27.9076555,5.02099448 27.7679426,5.11823204 27.6456938,5.24198895 C27.532177,5.36574586 27.4710526,5.52486188 27.4710526,5.7281768 C27.4710526,5.97569061 27.5583732,6.17016575 27.7242823,6.32044199 C27.8901914,6.47071823 28.1084928,6.59447514 28.3791866,6.70055249 C28.6498804,6.79779006 28.9555024,6.88618785 29.3047847,6.95690608 C29.654067,7.02762431 30.0120813,7.10718232 30.3788278,7.18674033 C30.7368421,7.26629834 31.0861244,7.37237569 31.4354067,7.48729282 C31.784689,7.60220994 32.090311,7.76132597 32.3610048,7.96464088 C32.6316986,8.1679558 32.85,8.41546961 33.0159091,8.7160221 C33.1818182,9.01657459 33.2691388,9.39668508 33.2691388,9.83867403 C33.2691388,10.3779006 33.14689,10.8287293 32.9023923,11.2088398 C32.6578947,11.5801105 32.3435407,11.8895028 31.9593301,12.119337 C31.5751196,12.3491713 31.1385167,12.5259669 30.6669856,12.6320442 C30.1954545,12.7381215 29.7239234,12.7911602 29.2611244,12.7911602 C28.6935407,12.7911602 28.1696172,12.7292818 27.6893541,12.5966851 C27.2090909,12.4640884 26.7899522,12.2696133 26.4406699,12.0132597 C26.0913876,11.7480663 25.8119617,11.4209945 25.6111244,11.0320442 C25.4102871,10.6430939 25.3055024,10.1745856 25.2880383,9.63535912 L27.2789474,9.63535912 L27.2789474,9.61767956 Z M33.7930622,3.45635359 L35.286244,3.45635359 L35.286244,0.733701657 L37.259689,0.733701657 L37.259689,3.45635359 L39.0410287,3.45635359 L39.0410287,4.95027624 L37.259689,4.95027624 L37.259689,9.79447514 C37.259689,10.0066298 37.2684211,10.1834254 37.2858852,10.3425414 C37.3033493,10.4928177 37.3470096,10.6254144 37.408134,10.7314917 C37.4692584,10.8375691 37.565311,10.9171271 37.6962919,10.9701657 C37.8272727,11.0232044 37.9931818,11.0497238 38.2202153,11.0497238 C38.3599282,11.0497238 38.4996411,11.0497238 38.6393541,11.040884 C38.779067,11.0320442 38.9187799,11.0143646 39.0584928,10.9790055 L39.0584928,12.5259669 C38.8401914,12.5524862 38.62189,12.5701657 38.4210526,12.5966851 C38.2114833,12.6232044 38.0019139,12.6320442 37.7836124,12.6320442 C37.259689,12.6320442 36.8405502,12.5790055 36.5261962,12.481768 C36.2118421,12.3845304 35.9586124,12.2342541 35.7839713,12.039779 C35.6005981,11.8453039 35.4870813,11.6066298 35.4172249,11.3149171 C35.3561005,11.0232044 35.3124402,10.6872928 35.3037081,10.3160221 L35.3037081,4.9679558 L33.8105263,4.9679558 L33.8105263,3.45635359 L33.7930622,3.45635359 Z M40.4381579,3.45635359 L42.3068182,3.45635359 L42.3068182,4.68508287 L42.3417464,4.68508287 C42.6211722,4.15469613 43.0053828,3.78342541 43.50311,3.55359116 C44.0008373,3.32375691 44.5334928,3.20883978 45.1185407,3.20883978 C45.8258373,3.20883978 46.4370813,3.33259669 46.9610048,3.58895028 C47.4849282,3.83646409 47.9215311,4.18121547 48.2708134,4.62320442 C48.6200957,5.06519337 48.8733254,5.57790055 49.0479665,6.16132597 C49.2226077,6.74475138 49.3099282,7.37237569 49.3099282,8.03535912 C49.3099282,8.64530387 49.2313397,9.23756906 49.0741627,9.80331492 C48.9169856,10.3779006 48.6812201,10.881768 48.366866,11.3237569 C48.052512,11.7657459 47.6508373,12.1104972 47.1618421,12.3756906 C46.6728469,12.640884 46.1052632,12.7734807 45.4416268,12.7734807 C45.1534689,12.7734807 44.865311,12.7469613 44.5771531,12.6939227 C44.2889952,12.640884 44.0095694,12.5524862 43.7476077,12.4375691 C43.4856459,12.3226519 43.2324163,12.1723757 43.0141148,11.9867403 C42.7870813,11.801105 42.6037081,11.5889503 42.4465311,11.3502762 L42.4116029,11.3502762 L42.4116029,15.8762431 L40.4381579,15.8762431 L40.4381579,3.45635359 L40.4381579,3.45635359 Z M47.3364833,8 C47.3364833,7.59337017 47.2840909,7.19558011 47.1793062,6.80662983 C47.0745215,6.41767956 46.9173445,6.08176796 46.7077751,5.78121547 C46.4982057,5.48066298 46.236244,5.24198895 45.930622,5.06519337 C45.6162679,4.88839779 45.2582536,4.79116022 44.8565789,4.79116022 C44.0270335,4.79116022 43.3983254,5.08287293 42.9791866,5.66629834 C42.5600478,6.24972376 42.3504785,7.02762431 42.3504785,8 C42.3504785,8.45966851 42.4028708,8.8839779 42.5163876,9.27292818 C42.6299043,9.66187845 42.7870813,9.99779006 43.0141148,10.280663 C43.2324163,10.5635359 43.494378,10.7845304 43.8,10.9436464 C44.105622,11.1116022 44.4636364,11.1911602 44.865311,11.1911602 C45.319378,11.1911602 45.6948565,11.0939227 46.0092105,10.9082873 C46.3235646,10.7226519 46.5767943,10.4751381 46.7776316,10.1834254 C46.9784689,9.88287293 47.1269139,9.54696133 47.2142344,9.16685083 C47.292823,8.78674033 47.3364833,8.39779006 47.3364833,8 Z M50.8205742,0 L52.7940191,0 L52.7940191,1.89171271 L50.8205742,1.89171271 L50.8205742,0 Z M50.8205742,3.45635359 L52.7940191,3.45635359 L52.7940191,12.5259669 L50.8205742,12.5259669 L50.8205742,3.45635359 Z M54.5578947,0 L56.5313397,0 L56.5313397,12.5259669 L54.5578947,12.5259669 L54.5578947,0 Z M62.5826555,12.7734807 C61.8666268,12.7734807 61.2291866,12.6497238 60.6703349,12.4110497 C60.1114833,12.1723757 59.6399522,11.8364641 59.2470096,11.4209945 C58.862799,10.9966851 58.5659091,10.4928177 58.3650718,9.90939227 C58.1642344,9.32596685 58.0594498,8.68066298 58.0594498,7.98232044 C58.0594498,7.29281768 58.1642344,6.65635359 58.3650718,6.07292818 C58.5659091,5.48950276 58.862799,4.98563536 59.2470096,4.56132597 C59.6312201,4.13701657 60.1114833,3.80994475 60.6703349,3.57127072 C61.2291866,3.33259669 61.8666268,3.20883978 62.5826555,3.20883978 C63.2986842,3.20883978 63.9361244,3.33259669 64.4949761,3.57127072 C65.0538278,3.80994475 65.5253589,4.14585635 65.9183014,4.56132597 C66.302512,4.98563536 66.5994019,5.48950276 66.8002392,6.07292818 C67.0010766,6.65635359 67.1058612,7.29281768 67.1058612,7.98232044 C67.1058612,8.68066298 67.0010766,9.32596685 66.8002392,9.90939227 C66.5994019,10.4928177 66.302512,10.9966851 65.9183014,11.4209945 C65.5340909,11.8453039 65.0538278,12.1723757 64.4949761,12.4110497 C63.9361244,12.6497238 63.2986842,12.7734807 62.5826555,12.7734807 Z M62.5826555,11.1911602 C63.0192584,11.1911602 63.4034689,11.0939227 63.726555,10.9082873 C64.0496411,10.7226519 64.3116029,10.4751381 64.5211722,10.1745856 C64.7307416,9.87403315 64.8791866,9.52928177 64.9839713,9.14917127 C65.0800239,8.76906077 65.1324163,8.3801105 65.1324163,7.98232044 C65.1324163,7.59337017 65.0800239,7.21325967 64.9839713,6.82430939 C64.8879187,6.43535912 64.7307416,6.09944751 64.5211722,5.79889503 C64.3116029,5.49834254 64.0496411,5.25966851 63.726555,5.07403315 C63.4034689,4.88839779 63.0192584,4.79116022 62.5826555,4.79116022 C62.1460526,4.79116022 61.7618421,4.88839779 61.438756,5.07403315 C61.1156699,5.25966851 60.8537081,5.50718232 60.6441388,5.79889503 C60.4345694,6.09944751 60.2861244,6.43535912 60.1813397,6.82430939 C60.0852871,7.21325967 60.0328947,7.59337017 60.0328947,7.98232044 C60.0328947,8.3801105 60.0852871,8.76906077 60.1813397,9.14917127 C60.2773923,9.52928177 60.4345694,9.87403315 60.6441388,10.1745856 C60.8537081,10.4751381 61.1156699,10.7226519 61.438756,10.9082873 C61.7618421,11.1027624 62.1460526,11.1911602 62.5826555,11.1911602 Z M67.682177,3.45635359 L69.1753589,3.45635359 L69.1753589,0.733701657 L71.1488038,0.733701657 L71.1488038,3.45635359 L72.9301435,3.45635359 L72.9301435,4.95027624 L71.1488038,4.95027624 L71.1488038,9.79447514 C71.1488038,10.0066298 71.1575359,10.1834254 71.175,10.3425414 C71.1924641,10.4928177 71.2361244,10.6254144 71.2972488,10.7314917 C71.3583732,10.8375691 71.4544258,10.9171271 71.5854067,10.9701657 C71.7163876,11.0232044 71.8822967,11.0497238 72.1093301,11.0497238 C72.2490431,11.0497238 72.388756,11.0497238 72.5284689,11.040884 C72.6681818,11.0320442 72.8078947,11.0143646 72.9476077,10.9790055 L72.9476077,12.5259669 C72.7293062,12.5524862 72.5110048,12.5701657 72.3101675,12.5966851 C72.1005981,12.6232044 71.8910287,12.6320442 71.6727273,12.6320442 C71.1488038,12.6320442 70.7296651,12.5790055 70.415311,12.481768 C70.1009569,12.3845304 69.8477273,12.2342541 69.6730861,12.039779 C69.4897129,11.8453039 69.3761962,11.6066298 69.3063397,11.3149171 C69.2452153,11.0232044 69.201555,10.6872928 69.192823,10.3160221 L69.192823,4.9679558 L67.6996411,4.9679558 L67.6996411,3.45635359 L67.682177,3.45635359 Z" id="Shape"></path>
                            </g>
                            <g id="Star">
                                <polygon id="Path" fill="#00B67A" points="23.9382353 8.78992248 14.7970588 8.78992248 11.9735294 0 9.14117647 8.78992248 0 8.78100775 7.40294118 14.2189922 4.57058824 23 11.9735294 17.5709302 19.3676471 23 16.5441176 14.2189922 23.9382353 8.78992248 23.9382353 8.78992248"></polygon>
                                <polygon id="Path" fill="#005128" points="17.1794118 16.2069767 16.5441176 14.2189922 11.9735294 17.5709302"></polygon>
                            </g>
                        </g>
                        <g id="Trustpilot_ratings_5star-RGB-Copy" transform="translate(139.842000, 0.000000)">
                            <rect id="Rectangle-path" fill="#00B67A" x="0" y="0" width="28" height="28"></rect>
                            <rect id="Rectangle-path" fill="#00B67A" x="30" y="0" width="28" height="28"></rect>
                            <rect id="Rectangle-path" fill="#00B67A" x="60" y="0" width="28" height="28"></rect>
                            <rect id="Rectangle-path" fill="#00B67A" x="89" y="0" width="28" height="28"></rect>
                            <rect id="Rectangle-path" fill="#00B67A" x="119" y="0" width="28" height="28"></rect>
                            <path d="M14.5,19.4889937 L18.6279762,18.3836478 L20.3526786,24 L14.5,19.4889937 Z M24,12.2295597 L16.733631,12.2295597 L14.5,5 L12.266369,12.2295597 L5,12.2295597 L10.8809524,16.7106918 L8.64732143,23.9402516 L14.5282738,19.4591195 L18.1473214,16.7106918 L24,12.2295597 L24,12.2295597 L24,12.2295597 L24,12.2295597 Z" id="Shape" fill="#FFFFFF"></path>
                            <path d="M43.5,19.4889937 L47.6279762,18.3836478 L49.3526786,24 L43.5,19.4889937 Z M53,12.2295597 L45.733631,12.2295597 L43.5,5 L41.266369,12.2295597 L34,12.2295597 L39.8809524,16.7106918 L37.6473214,23.9402516 L43.5282738,19.4591195 L47.1473214,16.7106918 L53,12.2295597 L53,12.2295597 L53,12.2295597 L53,12.2295597 Z" id="Shape" fill="#FFFFFF"></path>
                            <path d="M73.5,19.4889937 L77.6279762,18.3836478 L79.3526786,24 L73.5,19.4889937 Z M83,12.2295597 L75.733631,12.2295597 L73.5,5 L71.266369,12.2295597 L64,12.2295597 L69.8809524,16.7106918 L67.6473214,23.9402516 L73.5282738,19.4591195 L77.1473214,16.7106918 L83,12.2295597 L83,12.2295597 L83,12.2295597 L83,12.2295597 Z" id="Shape" fill="#FFFFFF"></path>
                            <path d="M103.5,19.4889937 L107.627976,18.3836478 L109.352679,24 L103.5,19.4889937 Z M113,12.2295597 L105.733631,12.2295597 L103.5,5 L101.266369,12.2295597 L94,12.2295597 L99.8809524,16.7106918 L97.6473214,23.9402516 L103.528274,19.4591195 L107.147321,16.7106918 L113,12.2295597 L113,12.2295597 L113,12.2295597 L113,12.2295597 Z" id="Shape" fill="#FFFFFF"></path>
                            <path d="M132.5,19.4889937 L136.627976,18.3836478 L138.352679,24 L132.5,19.4889937 Z M142,12.2295597 L134.733631,12.2295597 L132.5,5 L130.266369,12.2295597 L123,12.2295597 L128.880952,16.7106918 L126.647321,23.9402516 L132.528274,19.4591195 L136.147321,16.7106918 L142,12.2295597 L142,12.2295597 L142,12.2295597 L142,12.2295597 Z" id="Shape" fill="#FFFFFF"></path>
                        </g>
                    </g>
                </g>
            </g>
        </g>
    </g>
</svg>